<svg xmlns="http://www.w3.org/2000/svg" viewBox="0 0 64 64" fill="none" role="img" aria-label="ContractorSelect.me">
  <!-- White hexagonal frame (for use on dark backgrounds) -->
  <path
    d="M32 4 L56 18 L56 46 L32 60 L8 46 L8 18 Z"
    stroke="#FFFFFF"
    stroke-width="2.5"
    stroke-linejoin="round"
    fill="none"
    opacity="0.9"
  />

  <!-- Building skyline (white) -->
  <g fill="#FFFFFF">
    <rect x="22" y="14" width="6" height="22" />
    <rect x="29" y="18" width="5" height="18" />
    <path d="M35 22 L40 22 L40 18 L43 18 L43 36 L35 36 Z" />
  </g>

  <!-- House (white outline) -->
  <path
    d="M19 38 L32 28 L45 38 L45 50 L19 50 Z"
    fill="none"
    stroke="#FFFFFF"
    stroke-width="2"
    stroke-linejoin="round"
  />

  <!-- Window panes muted -->
  <g fill="#FFFFFF" opacity="0.5">
    <rect x="29" y="40" width="2.5" height="2.5" rx="0.3" />
    <rect x="32.5" y="40" width="2.5" height="2.5" rx="0.3" />
    <rect x="29" y="43.5" width="2.5" height="2.5" rx="0.3" />
    <rect x="32.5" y="43.5" width="2.5" height="2.5" rx="0.3" />
  </g>

  <!-- Brand-green checkmark — kept colored to preserve trust accent on dark bg -->
  <path
    d="M26 44 L31 49 L42 36"
    stroke="#0A8F4D"
    stroke-width="4.5"
    stroke-linecap="round"
    stroke-linejoin="round"
    fill="none"
  />
</svg>
